<svg preserveAspectRatio="none" width="100%" height="100%" overflow="visible" style="display: block;" viewBox="0 0 26 26" fill="none" xmlns="http://www.w3.org/2000/svg">
<g id="Group 1">
<path id="Vector" d="M25.9418 1.1144C26.0009 0.966748 26.0154 0.805 25.9834 0.649207C25.9515 0.493413 25.8745 0.350424 25.762 0.237968C25.6496 0.125511 25.5066 0.0485319 25.3508 0.0165734C25.195 -0.0153851 25.0333 -0.000917433 24.8856 0.0581829L1.24755 9.51373H1.24593L0.511451 9.80622C0.37234 9.86171 0.251274 9.95457 0.161626 10.0745C0.0719778 10.1945 0.017237 10.3369 0.00345011 10.4861C-0.0103368 10.6352 0.0173668 10.7853 0.0835006 10.9196C0.149634 11.054 0.251625 11.1675 0.378205 11.2475L1.04443 11.67L1.04606 11.6733L9.16265 16.8374L11.7463 20.8965C13.0008 22.7489 13.0008 21.124 13.0008 20.3115C13.0006 19.279 13.219 18.2581 13.6418 17.3161C14.0646 16.3741 14.682 15.5324 15.4535 14.8462C16.2251 14.16 17.1332 13.645 18.118 13.3351C19.1029 13.0251 20.1423 12.9273 21.1677 13.048L25.9418 1.1144ZM22.9633 4.18554L10.786 16.3629L10.4366 15.8136C10.3726 15.7129 10.2872 15.6274 10.1864 15.5634L9.63714 15.214L21.8145 3.0367L23.7287 2.27136L22.9633 4.18554Z" fill="var(--fill-0, white)"/>
<path id="Vector_2" d="M26.0003 20.3115C26.0003 21.8198 25.4011 23.2664 24.3346 24.333C23.268 25.3996 21.8214 25.9988 20.313 25.9988C18.8047 25.9988 17.3581 25.3996 16.2915 24.333C15.2249 23.2664 14.6257 21.8198 14.6257 20.3115C14.6257 18.8031 15.2249 17.3565 16.2915 16.29C17.3581 15.2234 18.8047 14.6242 20.313 14.6242C21.8214 14.6242 23.268 15.2234 24.3346 16.29C25.4011 17.3565 26.0003 18.8031 26.0003 20.3115ZM22.7618 17.5832C22.6703 17.5283 22.5688 17.4921 22.4633 17.4764C22.3577 17.4608 22.2501 17.4661 22.1466 17.492C22.043 17.518 21.9457 17.5641 21.86 17.6277C21.7743 17.6913 21.7019 17.7711 21.6471 17.8627L19.7459 21.0313L18.8571 20.1425C18.7045 19.9899 18.4976 19.9042 18.2818 19.9042C18.0661 19.9042 17.8592 19.9899 17.7066 20.1425C17.5541 20.295 17.4683 20.502 17.4683 20.7177C17.4683 20.9335 17.5541 21.1404 17.7066 21.2929L18.9643 22.549C19.0952 22.6802 19.2543 22.7798 19.4295 22.8402C19.6047 22.9006 19.7913 22.9203 19.9753 22.8978C20.1592 22.8752 20.3356 22.811 20.491 22.71C20.6464 22.609 20.7767 22.474 20.872 22.315L23.0413 18.6979C23.0962 18.6064 23.1325 18.5049 23.1481 18.3994C23.1637 18.2938 23.1584 18.1862 23.1325 18.0827C23.1065 17.9791 23.0604 17.8818 22.9968 17.7961C22.9332 17.7104 22.8534 17.638 22.7618 17.5832Z" fill="var(--fill-0, white)"/>
</g>
</svg>
